<?xml version="1.0" encoding="UTF-8"?><svg id="Laag_2" xmlns="http://www.w3.org/2000/svg" viewBox="0 0 3690.22 890.22"><defs><style>.cls-1{fill:#fff;}.cls-2{fill:#706f6f;}.cls-3{fill:#e30613;}.cls-4{fill:#164194;}</style></defs><g id="Acryl_letters"><path class="cls-1" d="M3665.82,678.47c-4.3-3.4-8.98-6.2-14.07-8.44l28.6-135.56c2.32-11.02-.11-22.46-6.62-31.55.15-.59.3-1.19.43-1.8l13.88-65.77c4.19-19.85,2.37-37.23-5.41-51.67-5.3-9.89-13.22-17.88-22.93-23.1-8.7-4.68-18.52-7.05-29.19-7.05-6.11,0-12.08.81-17.86,2.41-1.83-.26-3.68-.39-5.55-.39h-37.42c-3.19,0-6.3.38-9.29,1.1-3.01-.72-6.12-1.1-9.27-1.1h-38.15c-1.37,0-2.73.07-4.07.21-5.23-1.47-10.76-2.23-16.5-2.23-13.94,0-27.27,4.24-38.99,12.2-10.34-7.87-23.07-12.2-37.07-12.2-5.9,0-11.68.72-17.17,2.14-1-.08-2.01-.11-3.02-.11h-37.47c-2.44,0-4.83.22-7.16.65-2.33-.42-4.7-.65-7.11-.65h-38.15c-1.37,0-2.73.07-4.07.21-3.84-1.08-7.85-1.77-11.98-2.07-.23-8.73-3.3-17.24-8.91-24.15-7.6-9.36-19.01-14.8-31.07-14.8h-38.81c-18.91,0-35.23,13.24-39.14,31.74l-10.4,49.29c-3.69-22.02-11.86-40.59-24.35-55.21-13.5-15.81-38.91-34.65-83.26-34.65-10.58,0-21.16,1.52-31.57,4.49l17.9-110.63c.43-2.35.65-4.77.65-7.25,0-22.09-17.91-40-40-40h-118.56c-19.68,0-36.43,14.31-39.51,33.75l-22.3,140.86c-28.67-13.46-62.37-21.22-93.84-21.22-45.07,0-86.24,12.6-119.07,36.44-9.74,7.07-18.52,14.99-26.28,23.67l.97-6.15.05-.28c.42-2.31.63-4.7.63-7.13,0-5.7-1.2-11.11-3.35-16.02,15.03-17.39,24.99-38.35,28.49-60.49,2.3-14.5,1.67-28.74-1.86-42.32-3.67-14.13-10.3-26.87-19.7-37.88-9.56-11.2-21.33-19.88-34.97-25.82-13.09-5.7-27.32-8.58-42.29-8.58-22.69,0-45.27,7.19-64.95,20.48-4.01-11.89-13.53-21.63-26.26-25.5l-.83-.25c-22.02-6.7-44.59-10.1-67.1-10.1s-42.7,3.95-61.34,11.74c-19.09,7.98-36.07,19.95-50.47,35.6-25.94,28.17-43.09,67.68-50.96,117.45l-.27,1.68c-9.89.07-19.03,3.76-26.04,9.88-6.94-5.8-15.87-9.29-25.62-9.29h-172.77c-8.69,0-16.76,2.78-23.34,7.51-19.35-10.81-41.38-16.29-65.62-16.29-60.05,0-112.44,30.43-151.5,87.99-2.91,4.28-5.74,8.71-8.48,13.28-5.43-22.68-14.9-42.05-28.28-57.71-12.62-14.78-28.48-26-47.12-33.35-17.18-6.77-36.77-10.2-58.22-10.2-24.09,0-48.91,6.46-72.22,18.73-7.24-6.36-16.61-9.95-26.4-9.95h-170.18c-5.48,0-10.73,1.11-15.52,3.13-7.06-7.01-16.52-11.17-26.56-11.58l-7.4-.3s-.1,0-.15,0c-1.99-.07-4-.11-5.99-.11-25.18,0-49.58,5.78-72.66,17.19-6.93-5.34-15.5-8.33-24.44-8.33h-171.44c-5.11,0-10.01.97-14.54,2.74-4.69-22.04-11.27-42.73-19.6-61.6-9.81-22.2-22.12-42.05-36.59-58.99-20.66-24.18-45.72-42.65-74.49-54.9-28.02-11.93-59.7-17.98-94.15-17.98-41.04,0-80.3,8.76-116.7,26.04-12.14,5.76-23.94,12.48-35.37,20.09,6-29.89,9.37-59.33,8.63-90.54-.02-1.04-.09-2.09-.2-3.12l-3.08-30.15c-.07-.69-.16-1.38-.27-2.07-2.01-12.95-9.4-24.6-20.28-31.97-.6-.41-1.21-.8-1.83-1.17l-3.42-2.05c-7.53-4.82-16.21-7.36-25.24-7.36-10.59,0-21.02,3.62-29.35,10.2-.34.27-.68.55-1.02.83l-6.23,5.26c-1.57,1.32-3.03,2.77-4.38,4.31l-.2.23c-1.35,1.55-2.58,3.21-3.68,4.96-31.8,50.58-44.75,105.98-57.28,159.55-7.46,31.95-13.54,66.96-7.59,106.56,1.29,8.78,4.73,15.51,7.5,19.97l.38,1.24c-.23.51-.46,1.02-.69,1.53-9.08-5.06-18.16-9.6-26.8-13.8-16.74-25.28-41.06-59.5-72.99-93.63-.01-.01-.02-.03-.04-.04-23.03-24.55-43.32-43.05-65.8-60.01-.04-.03-.08-.06-.11-.09-3.66-2.74-7.61-5.95-11.79-9.36-9.87-8.04-21.04-17.14-33.89-24.49-17.47-10-34.61-14.87-52.39-14.87h-.01c-2.28,0-4.6.08-6.9.25-.79.04-1.57.1-2.35.17-.61-.13-1.22-.27-1.84-.4-11.48-5.3-24.31-7.98-38.25-7.98-13.49,0-25.87,2.46-35.42,4.75-8.96,1.69-17.13,6.03-23.54,12.53-1.24.67-2.52,1.39-3.83,2.16-2.32.43-4.6,1.05-6.83,1.87-4.57,1.67-8.78,4.12-12.46,7.2-13.92,10.12-24.74,25.11-31.43,43.61-4.18,11.55-6.76,24.62-7.47,37.54-15.58,15.46-18.46,39.92-5.92,58.8,6.98,10.49,18.04,17.78,30.36,20.05.32.06.64.11.96.17,5.05,12.52,12.36,23.34,19.48,32.52-.61.69-1.23,1.39-1.86,2.1-1.43,1.62-2.94,3.34-4.59,5.2-.4.45-.79.92-1.18,1.39l-18.72,23.18c-.38.47-.75.95-1.11,1.44-4.59,6.24-7.59,13.37-8.92,21.19-.18,1.07-.32,2.15-.42,3.23l-1.36,15.5c-.07.77-.11,1.53-.13,2.3-.27,9.06,1.94,18,6.38,25.87,1,1.78,2.14,3.47,3.4,5.08l7.3,9.27c3.98,5.06,9.12,9.08,14.99,11.72l.22.1c13.41,6.06,27.58,9.13,42.11,9.13,23.89,0,44.61-8.09,62.31-16.89,14.51,29.52,34.59,55.92,52.83,79.89l.1.13c2.99,3.92,5.8,7.63,8.62,11.37.02.02.03.04.05.06,1.81,2.4,3.67,4.78,5.59,7.14.04.58.07,1.16.11,1.74.04.6.08,1.21.11,1.83-27.26-32.25-63.4-56.98-104.84-71.26-1.24-.43-2.49-.79-3.76-1.09l-37.24-8.86c-.63-.15-1.26-.28-1.89-.4-2.92-.55-5.89-.82-8.83-.82-6.84,0-13.65,1.52-19.76,4.4l-6.19,2.84c-.97.45-1.93.93-2.86,1.46l-.15.08c-.44.25-.88.5-1.31.76-1.49.91-4.98,3.04-8.67,6.54-.38.36-.75.72-1.11,1.09l-5.27,5.4c-11.15,11.03-16.11,27.26-12.97,42.7.07.33.14.67.22,1l2.62,11.41c1.67,7.24,5.27,13.72,10.25,18.86,13.55,19.02,33.36,33.98,61.56,46.62,25.87,11.63,56.4,24.21,90.96,32.14,8.79,10.17,21.69,16.21,35.5,16.21,7.75,0,15.43-1.95,22.21-5.63,7.33-3.97,13.33-9.72,17.57-16.69l3.47,4.05c.57.67,1.17,1.32,1.78,1.95l.09.09c.58.59,1.17,1.16,1.78,1.72,5.32,4.81,11.3,8.26,17.8,10.26l6.84,2.23c.56.18,1.12.35,1.69.51,4.07,1.13,8.28,1.71,12.5,1.71,7.26,0,14.57-1.74,21.16-5.03.62-.31,1.24-.64,1.85-.98l5-2.83c16.74,23.02,31.45,48.26,45.84,72.95l.03.06c4.04,6.94,8.22,14.11,12.41,21.18,1.8,3.08,3.91,5.92,6.28,8.48l-6.27,15.97c-3.39,7.37-7.47,15.28-12.78,24.73-4.57,7.68-6.74,16.45-6.3,25.32-4.73,12.84-8.19,21.27-9.65,24.1-3.31,6.41-5.06,13.14-5.22,19.98-.26,11.64,4.31,22.99,12.55,31.14,8.04,7.94,18.95,12.32,30.72,12.32,4.45,0,9.07-.61,14.14-1.91,2.19.31,4.4.47,6.6.47,9.11,0,17.96-2.65,25.6-7.66.49-.32.98-.66,1.46-1,22.4-16.15,48.84-26.05,85.74-32.07.12-.02.26-.03.43-.03,2.16,0,6.67,1.42,11.04,2.8,7.63,2.41,17.96,5.67,30.17,6.35,8.54,7.05,19.36,11,30.59,11s22.56-4.11,31.23-11.57c6.01-5.16,10.56-11.55,13.38-18.7,2.39.06,4.79.09,7.21.09,87.38,0,165.39-39.48,225.6-114.17,5.74-7.13,11.28-14.56,16.63-22.25l-12.63,79.78c-1.83,11.56,1.49,23.34,9.09,32.23,7.6,8.9,18.71,14.02,30.42,14.02h169.78c19.68,0,36.43-14.31,39.51-33.74l27.93-176.35c1.33-8.37,5.36-33.84,14.59-48.75,5.1-8.25,10.02-11.35,18.93-11.68,2.11.59,8.43,2.7,21,9.51l8.17,4.43c5.4,2.93,11.32,4.52,17.29,4.78l-32.54,205.55c-1.83,11.56,1.49,23.34,9.09,32.23,7.6,8.9,18.71,14.02,30.42,14.02h169.78c8.96,0,17.32-2.97,24.05-8.04,6.87,5.17,15.29,8.04,24.05,8.04h169.78c19.68,0,36.43-14.31,39.51-33.74l6.03-38.09c6.11,13.25,13.52,25,22.23,35.18,25.39,29.72,61.04,45.42,103.09,45.42,24.5,0,48.5-5.76,71-16.78,6.85,5.14,15.25,8,24,8h170.61c11.28,0,21.59-4.71,28.92-12.38,7.06,5.74,15.94,8.99,25.24,8.99h20.33c5.74,0,11.25-1.22,16.25-3.45,5.01,2.23,10.52,3.45,16.25,3.45h21.25c4.95,0,9.78-.93,14.28-2.65,5.1,1.68,10.4,2.86,15.85,3.49,9.09,3.64,19.22,7.43,31.43,10.98l.9.26c3.73,1.09,7.5,1.61,11.21,1.61,11.69,0,22.8-5.16,30.36-13.97,5.01.99,10.49,1.55,16.49,1.55,9.29,0,17.37-1.35,24.37-3.52,4.18,1.46,8.62,2.24,13.17,2.24h20.33c5.74,0,11.25-1.22,16.25-3.45,5,2.23,10.52,3.45,16.25,3.45h21.25c2.29,0,4.55-.2,6.77-.58,2.2.38,4.47.58,6.78.58h19.64c5.09,0,9.96-.96,14.44-2.7,4.48,1.74,9.34,2.7,14.44,2.7h19.64c6.74,0,13.08-1.67,18.65-4.62,10.02,3.88,21.13,5.89,33.04,5.89,14.2,0,27.96-2.71,37.76-7.43l.68-.33c.47-.23.94-.47,1.4-.71,6.54,4.56,14.45,7.19,22.87,7.19h20.98c3.6,0,7.1-.48,10.44-1.38,3.34.9,6.85,1.38,10.45,1.38h20.75c4.83,0,9.5-.87,13.84-2.47,4.32,1.6,9,2.47,13.87,2.47h19.64c4.76,0,9.33-.83,13.57-2.36,4.24,1.53,8.8,2.36,13.57,2.36h19.64c6.48,0,12.6-1.55,18.01-4.29,9.16,3.64,19.16,5.56,29.62,5.56s21.29-1.99,30.77-5.75c5.5,2.85,11.75,4.47,18.37,4.47h50.75c1.45,0,2.87-.08,4.28-.23,1.41.15,2.83.23,4.28.23h51.79c3.26,0,6.42-.4,9.45-1.13,6.74,1.48,13.83,2.29,20.78,2.29,8.53,0,16.6-1.09,24.06-3.2,4,1.32,8.23,2.03,12.54,2.03h20.33c5.74,0,11.25-1.22,16.25-3.45,5,2.23,10.52,3.45,16.25,3.45h21.25c1.33,0,2.65-.08,3.96-.21,1.36.14,2.74.21,4.13.21h50.75c1.45,0,2.87-.08,4.28-.23,1.41.15,2.83.23,4.28.23h51.79c10.53,0,20.1-4.07,27.24-10.72,12.99,7.65,28.56,11.54,46.51,11.54,9.82,0,18.88-1.38,26.05-2.95,4.04,1.38,8.37,2.13,12.88,2.13h19.52c3.79,0,7.46-.53,10.93-1.51,3.5.99,7.16,1.51,10.9,1.51h20.34c5.22,0,10.29-1.02,14.98-2.91,8.12,2.74,16.82,4.19,25.88,4.19,15.05,0,29.13-3.77,41.16-10.81,9.61,6.08,22.68,10.81,40.09,10.81,11.62,0,21.35-2.11,29.44-5.3,5.29,2.58,11.22,4.03,17.5,4.03h19.52c20.23,0,36.96-15.02,39.63-34.53,6.84-3.05,13.04-7.08,18.46-12.05,13.26-12.06,20.56-29.4,20.56-48.86s-8.74-38.4-24-50.33ZM681.08,487.44c4.01-25.31,11.28-61.39,23.21-89.59,5.87-13.87,11.33-22.01,15.2-26.42,1.22,4.79,2.47,12.01,3.03,22.53,1.1,20.73-.9,48.02-5.79,78.9-4,25.3-11.28,61.38-23.22,89.58-5.87,13.87-11.33,22.01-15.2,26.41-1.22-4.79-2.47-12.01-3.03-22.52-1.1-20.73.9-48.01,5.79-78.89Z"/><path class="cls-3" d="M885.63,223.09c-33.17-38.83-79.42-58.52-137.46-58.52-162.08,0-259.75,158.69-284.65,315.97-17.16,108.43.57,202.91,48.65,259.2,33.17,38.83,79.42,58.52,137.46,58.52,162.08,0,259.74-158.69,284.64-315.97,17.16-108.43-.56-202.91-48.64-259.2ZM757.22,480.54c-9.15,57.85-32.19,154.9-83.59,154.9-9.76,0-17.46-3.46-23.54-10.58-17.46-20.45-20.84-71.08-9.51-142.57,9.15-57.86,32.19-154.91,83.59-154.91,9.76,0,17.46,3.46,23.54,10.58,17.46,20.45,20.84,71.08,9.51,142.59Z"/><path class="cls-3" d="M1236.95,535.58l29.89-188.8-6.28-.25c-44.93-1.66-87.32,21.85-117.82,64.66l14.93-55.89h-169.28l-68.48,432.58h167.75l27.79-175.51c7-44.25,21.94-95.04,75.71-95.04,5.52,0,16.73,2.52,38.84,14.49l6.95,3.77Z"/><path class="cls-3" d="M1654.66,375.71c-16.54-19.37-41.5-29.18-74.17-29.18-45.76,0-86.73,31.58-112.08,67.19l12.23-58.42h-168.1l-68.47,432.58h167.75l32.84-207.44c7.49-47.33,14.5-67.11,38.56-67.11,5.84,0,9.91,1.44,12.44,4.41,7.04,8.24,4.37,29.51,1.04,50.59l-34.76,219.55h167.75l44.72-282.45c9.44-59.67,2.79-103.31-19.76-129.71Z"/><path class="cls-3" d="M1964,355.3l-2.97,49.88c-18.11-38.94-47.28-58.66-86.94-58.66-101.21,0-155.27,113.75-172.12,220.19-6.69,42.28-17.4,146.29,27.52,198.88,17.61,20.61,41.8,31.05,71.92,31.05,40.55,0,79.51-21.6,109.74-60.12l-13.44,51.35h168.46l68.48-432.58h-170.65ZM1933.67,565.18c-1.81,11.46-5.59,35.33-13.59,56.3l-.05.14c-8.04,22.94-19.58,34.57-34.3,34.57-3.67,0-14.84,0-17.01-23.58-1.35-16.94,1.14-36.45,2.76-46.64,2.18-13.77,6.24-39.41,13.56-61.13,9.62-26.36,20.48-38.64,34.16-38.64,8.19,0,17.78,3.31,19.31,29.02.8,16.02-2.1,33.46-4.02,45l-.82,4.97Z"/><path class="cls-2" d="M2146.33,764.41l-5.57,20.08h-18.22l23.79-78.22h23.21l24.37,78.22h-19.15l-6.03-20.08h-22.4ZM2166.18,751.18l-4.87-16.6c-1.39-4.64-2.79-10.45-3.95-15.09h-.23c-1.16,4.64-2.32,10.56-3.6,15.09l-4.64,16.6h17.29Z"/><path class="cls-2" d="M2268.32,797.95c-11.14-3.25-20.43-6.73-30.99-11.03-1.74-.7-3.6-1.04-5.34-1.16-17.76-1.16-34.24-14.16-34.24-39.81,0-23.56,14.86-41.08,38.3-41.08s36.91,18.1,36.91,39.58c0,17.76-8.24,30.29-18.45,34.93v.46c5.92,1.74,12.65,3.25,18.8,4.41l-4.99,13.7ZM2254.27,745.14c0-14.39-6.73-26.23-18.8-26.23s-19.03,11.84-19.03,26.58,7.08,26.23,19.03,26.23,18.8-11.26,18.8-26.58Z"/><path class="cls-2" d="M2302.21,706.26v44.92c0,13.58,5.22,20.43,14.16,20.43s14.39-6.5,14.39-20.43v-44.92h17.64v43.87c0,24.14-12.19,35.63-32.61,35.63s-31.22-11.03-31.22-35.86v-43.64h17.64Z"/><path class="cls-2" d="M2378.47,764.41l-5.57,20.08h-18.22l23.79-78.22h23.21l24.37,78.22h-19.15l-6.03-20.08h-22.4ZM2398.31,751.18l-4.87-16.6c-1.39-4.64-2.78-10.45-3.95-15.09h-.23c-1.16,4.64-2.32,10.56-3.6,15.09l-4.64,16.6h17.29Z"/><path class="cls-2" d="M2441.96,721.12h-21.12v-14.86h60.12v14.86h-21.35v63.37h-17.64v-63.37Z"/><path class="cls-2" d="M2508.12,706.26v78.22h-17.64v-78.22h17.64Z"/><path class="cls-2" d="M2580.77,782.4c-3.13,1.51-10.56,3.37-19.96,3.37-27.04,0-40.97-16.94-40.97-39.23,0-26.69,19.03-41.43,42.71-41.43,9.17,0,16.13,1.74,19.27,3.48l-3.71,13.93c-3.48-1.51-8.47-2.9-14.86-2.9-13.93,0-24.84,8.47-24.84,25.88,0,15.67,9.29,25.53,24.95,25.53,5.46,0,11.26-1.04,14.86-2.55l2.55,13.93Z"/><path class="cls-2" d="M2624.3,784.49l-18.57-78.22h18.92l5.92,32.15c1.74,9.4,3.37,19.5,4.64,27.39h.23c1.28-8.47,3.13-17.87,5.11-27.62l6.61-31.92h18.8l6.27,32.96c1.74,9.17,3.02,17.53,4.18,26.23h.23c1.16-8.7,2.9-17.87,4.53-27.27l6.38-31.92h17.99l-20.19,78.22h-19.15l-6.62-33.66c-1.51-7.89-2.78-15.2-3.71-24.14h-.23c-1.39,8.82-2.67,16.25-4.53,24.14l-7.43,33.66h-19.38Z"/><path class="cls-2" d="M2732.47,706.26v30.06h29.13v-30.06h17.64v78.22h-17.64v-32.73h-29.13v32.73h-17.64v-78.22h17.64Z"/><path class="cls-2" d="M2866.3,744.56c0,25.77-15.44,41.2-38.42,41.2s-36.79-17.53-36.79-39.92,15.09-40.97,38.07-40.97,37.14,17.99,37.14,39.69ZM2809.77,745.49c0,15.44,7.2,26.23,19.03,26.23s18.8-11.37,18.8-26.58c0-14.16-6.61-26.23-18.8-26.23s-19.03,11.37-19.03,26.58Z"/><path class="cls-2" d="M2878.02,706.26h17.64v63.37h31.1v14.86h-48.75v-78.22Z"/><path class="cls-2" d="M2983.76,751.41h-28.78v18.57h32.15v14.51h-49.79v-78.22h48.17v14.51h-30.52v16.25h28.78v14.39Z"/><path class="cls-2" d="M2999.78,766.27c4.64,2.44,12.07,4.87,19.61,4.87,8.12,0,12.42-3.37,12.42-8.47s-3.71-7.66-13.11-10.91c-13-4.64-21.59-11.84-21.59-23.21,0-13.35,11.26-23.44,29.6-23.44,8.94,0,15.32,1.74,19.96,3.95l-3.95,14.16c-3.02-1.51-8.7-3.71-16.25-3.71s-11.37,3.6-11.37,7.54c0,4.99,4.29,7.2,14.51,11.03,13.81,5.11,20.19,12.3,20.19,23.33,0,13.11-9.98,24.26-31.45,24.26-8.94,0-17.76-2.44-22.17-4.87l3.6-14.51Z"/><path class="cls-2" d="M3080.09,764.41l-5.57,20.08h-18.22l23.79-78.22h23.21l24.37,78.22h-19.15l-6.03-20.08h-22.4ZM3099.94,751.18l-4.87-16.6c-1.39-4.64-2.78-10.45-3.95-15.09h-.23c-1.16,4.64-2.32,10.56-3.6,15.09l-4.64,16.6h17.29Z"/><path class="cls-2" d="M3138.13,706.26h17.64v63.37h31.1v14.86h-48.75v-78.22Z"/><path class="cls-2" d="M3243.86,751.41h-28.78v18.57h32.15v14.51h-49.79v-78.22h48.17v14.51h-30.52v16.25h28.78v14.39Z"/><path class="cls-2" d="M3348.09,780.89c-5.46,1.86-15.78,4.41-26.11,4.41-14.28,0-24.6-3.6-31.8-10.45-7.08-6.85-11.03-17.06-11.03-28.55.12-26,19.03-40.85,44.68-40.85,10.1,0,17.87,1.97,21.7,3.71l-3.71,14.28c-4.29-1.97-9.52-3.37-18.11-3.37-14.74,0-26,8.24-26,25.3s10.21,25.65,24.72,25.65c3.95,0,7.2-.46,8.59-1.04v-16.48h-12.07v-13.81h29.13v41.2Z"/><path class="cls-2" d="M3361.91,707.31c5.69-.93,14.04-1.63,23.56-1.63,11.61,0,19.73,1.74,25.3,6.15,4.76,3.71,7.31,9.28,7.31,16.48,0,9.87-7.08,16.71-13.81,19.15v.35c5.46,2.2,8.47,7.31,10.45,14.51,2.44,8.94,4.76,19.15,6.27,22.17h-18.11c-1.16-2.32-3.13-8.59-5.34-18.22-2.2-9.87-5.57-12.42-12.88-12.53h-5.22v30.76h-17.52v-77.18ZM3379.43,740.96h6.96c8.82,0,14.04-4.41,14.04-11.26s-4.87-10.79-13-10.79c-4.29,0-6.73.23-8.01.58v21.47Z"/><path class="cls-2" d="M3501.88,744.56c0,25.77-15.44,41.2-38.42,41.2s-36.79-17.53-36.79-39.92,15.09-40.97,38.07-40.97,37.14,17.99,37.14,39.69ZM3445.36,745.49c0,15.44,7.2,26.23,19.03,26.23s18.8-11.37,18.8-26.58c0-14.16-6.62-26.23-18.8-26.23s-19.03,11.37-19.03,26.58Z"/><path class="cls-2" d="M3531.13,706.26v44.92c0,13.58,5.22,20.43,14.16,20.43s14.39-6.5,14.39-20.43v-44.92h17.64v43.87c0,24.14-12.19,35.63-32.61,35.63s-31.22-11.03-31.22-35.86v-43.64h17.64Z"/><path class="cls-2" d="M3592.65,707.31c5.45-.93,13.11-1.63,23.91-1.63s18.69,2.09,23.91,6.27c5.11,3.95,8.36,10.44,8.36,18.1s-2.44,14.28-7.2,18.57c-6.03,5.57-14.97,8.24-25.42,8.24-2.32,0-4.41-.12-6.04-.46v28.09h-17.52v-77.18ZM3610.17,742.82c1.51.35,3.25.46,5.92.46,9.4,0,15.2-4.76,15.2-12.65,0-7.2-4.99-11.49-13.93-11.49-3.48,0-5.92.23-7.2.58v23.1Z"/><path class="cls-4" d="M2172.82,668.62l34.92-220.57h-33.89l14.77-93.34h33.89l5.74-36.27c13.08-82.64,54.5-130.2,122.28-130.2,19.02,0,37.58,2.97,55.16,8.32l-17.03,107.61c-6.29-5.35-13.17-10.7-22.09-10.7-17.25,0-20.56,17.24-25.18,46.38l-2.35,14.86h41.61l-14.78,93.34h-41.62l-34.92,220.57h-116.53Z"/><path class="cls-4" d="M2375.95,668.62l49.69-313.91h116.53l-49.7,313.91h-116.52ZM2431.75,271.39c5.84-36.86,41.05-67.78,77.92-67.78s64.35,29.13,58.33,67.18c-5.93,37.46-40.65,68.96-78.7,68.96s-63.57-30.32-57.55-68.37Z"/><path class="cls-4" d="M2599.66,555.66c11.32,14.86,31.69,32.7,53.09,32.7,10.11,0,23.35-4.76,25.13-16.06,1.79-11.29-7.28-17.84-26.37-24.97-43.24-16.06-75.74-39.83-67.27-93.34,10.26-64.81,69.67-105.83,142.8-105.83,31.51,0,66.77,10.11,91.67,25.56l-53.29,85.02c-11.7-12.49-24.71-27.94-44.33-27.94-8.33,0-18.09,5.35-19.69,15.45-2.54,16.06,18.74,24.38,30.47,29.13,39.67,16.05,69.98,38.64,61.89,89.78-11.2,70.75-78.05,109.99-142.86,109.99-42.8,0-74.12-12.48-107.78-32.7l56.55-86.8Z"/><path class="cls-4" d="M2970.83,668.62l25.13-158.74c4.24-26.75,6.06-45.78-14.16-45.78-23.19,0-28.23,24.38-32.84,53.51l-23.91,151.02h-116.53l75.01-473.85h116.53l-27.61,170.63c-2.54,16.06-6.77,31.51-9.91,47.57l1,1.19c16.66-33.89,52.07-65.99,90.71-65.99,67.18,0,74.79,57.08,65.85,113.56l-32.75,206.9h-116.52Z"/><path class="cls-4" d="M3157.92,491.08l8.04-38.08c3.03,5.41,7.37,8.11,13.01,8.11,7.52,0,12.47-5.64,14.86-16.93l18.4-87.19h36.76l-19.94,94.5c-1.7,8.05-3.76,14.49-6.19,19.31-2.3,4.76-5.6,9.14-9.91,13.14-8.32,7.7-18.98,11.55-31.97,11.55-6.88,0-14.56-1.47-23.05-4.41Z"/><path class="cls-4" d="M3323.05,493.11h-35.44c.96-3.17,1.84-6.2,2.62-9.08.78-2.88,1.45-5.2,2-6.96-8.64,11.99-18.11,17.98-28.39,17.98-8.93,0-15.07-4.47-18.42-13.4-3.3-8.87-3.29-21.16.02-36.85,3.2-15.16,8.39-27.09,15.57-35.79,7.21-8.82,15.43-13.22,24.65-13.22s15.9,5.7,19.31,17.1c.13-1.18.26-2.2.39-3.09s.22-1.62.29-2.2l.82-5.55.63-4.23h36.06l-20.11,95.3ZM3297.56,444.27c.74-3.53,1.25-6.52,1.5-8.99.26-2.47.25-4.48,0-6.04-.26-1.56-.79-2.67-1.59-3.35-.8-.68-1.87-1.02-3.22-1.02-5.99,0-10.67,7.96-14.03,23.89-2.41,11.4-.93,17.1,4.41,17.1s9.89-7.2,12.93-21.6Z"/><path class="cls-4" d="M3365.75,535.6h-35.35l29.07-137.79h35.35l-3.64,13.49c2.06-2.82,4.07-5.21,6.01-7.19,1.94-1.96,3.93-3.57,5.95-4.8,2.02-1.23,4.11-2.13,6.26-2.69,2.15-.56,4.45-.84,6.92-.84,9.17,0,15.67,4.58,19.49,13.75,3.79,9.05,4.11,21.07.94,36.06-3.21,15.22-8.49,27.27-15.83,36.14-7.22,8.87-15.53,13.31-24.94,13.31-8.58,0-15.03-4.97-19.34-14.9-.34,3-.71,5.58-1.11,7.76-.29,2.23-.77,4.91-1.43,8.02l-8.37,39.67ZM3400.39,444.54c1.31-6.23,1.62-11.06.9-14.5-.72-3.43-2.4-5.16-5.04-5.16-5.47,0-9.61,6.67-12.42,20.01-2.88,13.63-1.67,20.45,3.62,20.45,2.64,0,5.12-1.82,7.41-5.47,2.3-3.64,4.14-8.76,5.53-15.34Z"/><path class="cls-4" d="M3529.76,493.11h-35.44c.96-3.17,1.84-6.2,2.62-9.08.78-2.88,1.45-5.2,2-6.96-8.64,11.99-18.11,17.98-28.39,17.98-8.93,0-15.07-4.47-18.42-13.4-3.3-8.87-3.29-21.16.02-36.85,3.2-15.16,8.39-27.09,15.57-35.79,7.21-8.82,15.43-13.22,24.65-13.22s15.9,5.7,19.31,17.1c.13-1.18.26-2.2.39-3.09.13-.88.22-1.62.29-2.2l.82-5.55.63-4.23h36.06l-20.11,95.3ZM3504.27,444.27c.74-3.53,1.25-6.52,1.5-8.99.26-2.47.25-4.48,0-6.04-.26-1.56-.79-2.67-1.59-3.35-.8-.68-1.87-1.02-3.22-1.02-5.99,0-10.67,7.96-14.03,23.89-2.41,11.4-.93,17.1,4.41,17.1s9.89-7.2,12.93-21.6Z"/><path class="cls-4" d="M3634.2,493.11h-35.35l10.64-50.43c.92-4.35,1.13-7.38.64-9.08-.49-1.7-1.8-2.56-3.91-2.56-4.94,0-8.39,4.67-10.36,14.02l-10.14,48.05h-35.35l20.11-95.3h35.35c-.55,2.35-1.07,4.53-1.55,6.52-.48,2-.96,3.85-1.44,5.55l-1.64,6.08c8.54-13.46,18.31-20.19,29.3-20.19,7.64,0,12.97,2.85,16,8.55,3.09,5.7,3.56,13.63,1.41,23.8l-13.71,64.97Z"/><path class="cls-4" d="M3246.9,626l-9.49,35.83c-8.08,3-15.06,4.5-20.96,4.5-13.87,0-24.48-5.09-31.81-15.27-8.2-11.41-10.09-27.56-5.69-48.45,4.13-19.55,12.42-35.25,24.88-47.08,12.45-11.78,27-17.68,43.66-17.68,5.41,0,10.71,1.02,15.91,3.05l-7.48,35.43c-3.93-4.98-8.52-7.47-13.77-7.47-6.86,0-12.83,2.92-17.92,8.76-5.1,5.89-8.75,14.03-10.94,24.43-1.06,5.04-1.53,9.53-1.4,13.5.13,3.96.8,7.31,2.02,10.04,1.22,2.73,2.98,4.82,5.3,6.27,2.32,1.45,5.17,2.17,8.54,2.17,5.78,0,12.16-2.68,19.13-8.03Z"/><path class="cls-4" d="M3337.88,622.07c-2.83,13.39-8.77,24.05-17.84,31.98-9.06,7.93-19.81,11.89-32.24,11.89s-21.08-4.04-26.61-12.13c-5.46-8.14-6.74-19.07-3.85-32.78,2.89-13.71,8.89-24.72,17.98-33.02,9.05-8.36,19.6-12.53,31.65-12.53,12.69,0,21.78,4.15,27.26,12.45,5.48,8.3,6.69,19.68,3.64,34.15ZM3306.85,621.02c.68-3.21,1.08-6.12,1.2-8.72.12-2.59-.03-4.82-.44-6.66-.41-1.85-1.07-3.28-1.99-4.3-.91-1.02-2.06-1.53-3.45-1.53-2.73,0-5.33,1.93-7.81,5.78-2.37,3.37-4.27,8.44-5.69,15.19-1.4,6.64-1.64,11.7-.71,15.19.85,3.86,2.66,5.78,5.45,5.78,2.62,0,5.2-1.9,7.71-5.7,2.61-4.23,4.52-9.24,5.74-15.02Z"/><path class="cls-4" d="M3384.94,647.62c-1.06,5.04-3.82,9.35-8.27,12.94-4.35,3.59-9.12,5.38-14.31,5.38s-9.23-1.82-12.26-5.46c-2.92-3.7-3.82-8.17-2.71-13.42,1.09-5.14,3.83-9.53,8.24-13.18,4.41-3.64,9.19-5.46,14.33-5.46s9.41,1.87,12.31,5.62c2.92,3.7,3.81,8.22,2.68,13.58Z"/><path class="cls-4" d="M3469.05,664.17h-58.65l26.18-124.05h33.5l-19.89,94.25h25.15l-6.29,29.81Z"/><path class="cls-4" d="M3514.45,664.17h-32.3l12.85-60.9h-9.16l5.48-25.95h9.16l5.39-25.55h32.3l-5.39,25.55h10.69l-5.48,25.95h-10.69l-12.85,60.9Z"/><path class="cls-4" d="M3578.4,664.17c.25-.91.52-1.96.82-3.13.3-1.18.67-2.54,1.11-4.1.31-.96.7-2.44,1.17-4.42-4.17,5.04-7.94,8.54-11.3,10.53-3.3,1.93-7.06,2.89-11.3,2.89-8.73,0-14.76-3.91-18.09-11.73-3.28-7.82-3.45-18.69-.51-32.62,3.09-14.62,7.89-25.95,14.4-33.99,6.53-8.09,14.18-12.13,22.97-12.13,4.82,0,8.48,1.07,10.97,3.21,2.65,2.14,4.87,5.87,6.64,11.17.43-2.79.7-4.47.83-5.06l1.53-8.76,10.04-47.56h32.3l-28.63,135.7h-32.94ZM3573.9,620.38c-2.51,11.89-1.11,17.84,4.19,17.84,4.98,0,8.77-6.13,11.35-18.4,2.48-11.73,1.3-17.6-3.52-17.6-5.46,0-9.47,6.05-12.03,18.16Z"/><path class="cls-1" d="M176.77,379.04l41.76,68.14,52.03,61.73-4.34,20.11,10.97,49.34,15.03,19.55,20.51-12.52,7.08-23.47,51.52,54.43,51.79,89.47,13.49,23.02-28.76,73.3s-11.47,33.19-17.4,44.69c-5.93,11.5,29.51-7.31,29.51-7.31l74.25-31.52,38.97-3.51,28.25,7.54,36.51,9.53-56.01-70.56-27.71-50.94-22.12-58.86-35.59-132.58,30.09-11.6-17.91-52.42-10.91-37.26-5.51-30.71-66.29-38.95-57.49-80.36-65.07-64.18-63.18-44.53-49.81-10.97-42.44,1.97s-17.51,4.68-33.58,21.25c-16.08,16.57-13.69,45.45-13.69,45.45l16.51,40.21,31.49,50.98,13.88,17.19-20.21,21.97-31.73,37.2-1.68,17.54,17.03,11.29,45.09-9.56,40.64-20.05,5.07,5.96Z"/><polygon class="cls-1" points="698.11 229.58 659.66 261.3 625.42 307.92 590.87 357.73 567.07 404.54 558.43 435.9 555.63 473.46 606.1 417.13 646.35 358.21 677.14 305.63 699.39 249.82 698.11 229.58"/><polygon class="cls-1" points="548.7 50.27 529.16 86.23 504.89 154.72 486.25 214.91 481.74 261.96 485.14 293.67 494.92 326 521.39 268.17 538.08 219.87 550.58 156.69 555.24 108.04 555.91 59.01 548.7 50.27"/><path class="cls-3" d="M478.4,681.61c-3.42-9.9-9.48-18.21-16.38-26.01,1.98.02,3.96-.69,5.5-2.14,2.57-2.32,3.21-5.86,2.05-8.84,1.2-.35,2.34-.95,3.31-1.88,2.89-2.77,3.21-7.27.85-10.47,2.38.62,4.99.13,6.95-1.73,3.04-2.75,3.15-7.51.4-10.54l-11.64-12.44c-21.28-21.79-43.1-42.96-64.95-64.13l2.63,2.11c.96.87,2.12,1.43,3.37,1.65l2.29.39c2.17.36,4.37-.23,5.98-1.7,2.89-2.67,3.03-7.06.33-9.84l-6.97-7.68c-9.93-8.25-18.64-17.85-28.02-26.79l-6.2-5.9c-4.15-4.23-8.37-8.38-12.82-12.29l-3.87-3.61-.5-.47h0s-.38-.35-.38-.35c-2.41-2.1-6.05-1.91-8.24.36-1.44,1.46-1.87,3.47-1.52,5.38l-4.08-2.86c-1.79-1.33-4.21-1.65-6.44-.95-3.81,1.22-5.9,5.31-4.68,9.12l2.67,6.36c16.31,19.3,34.16,37.12,52.34,54.61-2.8-.91-5.93-.3-8,1.84-.41.43-.75.89-1.05,1.38-.44.18-.88.35-1.29.61-3.56,2.48-4.47,7.5-2.1,11.03l4.73,6.7c7.64,8.54,15.26,17.09,22.9,25.62-3.41,2.21-4.71,6.67-2.8,10.35l2.7,4.94c18.6,26.22,41.4,48.93,61.51,74,1.66,3.09,5.49,4.39,8.55,2.85,3.21-1.63,4.39-5.49,2.88-8.66Z"/><path class="cls-3" d="M285.78,223.77c-2.67-2.89-7.28-3.1-10.18-.42,1.65.1,3.19.16,4.84.26-2.34.41-4.48.09-6.53-.61-.16-1.95-1.11-3.83-2.79-5.08l-4.21-2.96c-5.84-3.1-11.8-6.02-17.77-8.91.21-.35.41-.72.56-1.12.02-.05.03-.11.04-.16,2.71.72,5.65-.21,7.16-2.52,2.03-3.03,1.24-7.08-1.78-9.11l-6.69-4.37c-2.07-1.04-4.11-2.11-6.16-3.17.81-.48,1.55-1.08,2.07-1.91,1.75-2.86.75-6.61-2-8.33l-10.35-4.54c-2.06-.82-4.09-1.69-6.14-2.53.44-1.97-.32-4.09-2.12-5.26l-4.14-2.34-.03.11c-7.99-2.88-15.96-5.72-23.94-8.57.89-.19,1.6-.9,1.67-1.79.23-1.26-.64-2.45-1.81-2.54l-.23,1.25c-11.98-5.67-24.86-8.1-37.65-10.85l-5.67-2.31-.07-.05v.02s-1.08-.44-1.08-.44c-1.37-.45-2.78-.29-3.99.28-.53-.14-1.07-.25-1.61-.4l-4.92-1.24c-2.14-.47-4.27.73-4.86,2.85-.58,2.11.7,4.38,2.78,5.08l6.95,2c.35.4.71.8,1.18,1.09l1.07.49-.02.04.32.1,5.85,2.69c-.73,2.49.11,5.03,2.12,6.58-.57.53-1.09,1.13-1.46,1.85-1.54,3.4-.24,7.36,3.13,9.01l6.22,3.04c3.75,2.33,7.57,4.54,11.41,6.71.15,2.1,1.26,4.11,3.2,5.36l11.02,6.88c11.63,6.46,23.19,13.07,34.73,19.74.32,1.81,1.35,3.5,2.95,4.58l7.68,5.12c16.55,4.22,32.51,29.59,50.83,16.58,2.89-2.67,3.09-7.28.42-10.18Z"/><path d="M163.37,141.45c-16.33-12.5-37.64-9.3-55.97-4.8-2.28.16-3.78,2.14-3.62,4.42.21,2.13,2.14,3.79,4.46,3.47,18.53-.62,36.22-5.14,54.63-1.32.45.12,1.02-.2,1.13-.64.13-.45-.2-1.01-.64-1.14h0Z"/><path d="M78.73,152.01c-17.59,11.09-24.36,36.67-24.16,57.31-.33,2.94,1.9,5.79,5,6.17,2.94.33,5.79-1.91,6.13-4.85,1.52-18.73,8.43-35.65,15.96-53.04.67-1.25-.7-3.23-1.22-4.81.27-.4.14-1.08-.45-1.24-.4-.27-1.08-.14-1.24.45h0Z"/><path d="M70.43,210.84c-11.24,3.11-16.85,14.17-26.93,18.88-2.58,1.84-3.19,5.18-1.5,7.72,1.69,2.54,5.14,3.34,7.72,1.5,10.16-6.12,16.86-15.92,23.88-25.15,1.38-1.54,1.21-3.82-.17-5.15-1.53-1.38-3.81-1.22-5.15.17l2.15,2.03Z"/><path d="M73.86,243.4c-2.55,24.19,16.78,43.75,31.08,61.27,1.88,2.44,5.35,2.6,7.78.72,2.29-1.92,2.64-5.5.57-7.82-14.17-16.85-27.27-34.68-34.35-55.8-.65-2.25-3.16-3.59-5.3-2.74-2.26.65-3.59,3.15-2.75,5.3l2.97-.93Z"/><path d="M436.91,711.36c-2.44,31.74-16.39,60.99-31.62,88.06-1.21,1.84-.8,4.45,1.04,5.67,2.06,1.21,4.56.69,5.78-1.15,19.14-25.94,30.19-60.12,27.2-92.77,0-.65-.53-1.2-1.3-1.1-.65,0-1.2.53-1.1,1.3h0Z"/><path d="M569.52,813.94c-50.11-29.89-115.99-8.24-159.88,24.56-2.62,1.72-3.42,5.3-1.7,7.93,1.72,2.62,5.3,3.42,7.92,1.7,30.42-21.94,64.45-32.97,103.11-39.28,19.71-3.21,33.87,8.11,51.48,8.69,1.42-.1,2.51-1.18,2.52-2.48.01-1.3-1.07-2.4-2.48-2.52l-.99,1.41Z"/><path d="M528.68,780.97c-7.42-10.39-8.83-23.46-14.73-34.49-.96-1.86-3.35-2.75-5.21-1.78-1.97.85-2.75,3.13-1.89,5.1,7.09,10.5,8.71,25.31,19.96,33.01.65.66,1.73.66,2.39.02.66-.65.67-1.73.02-2.39l-.55.54Z"/><path d="M442.04,800.81c14.39-29.47,30.84-59.46,31.45-93.28.23-2.39-1.38-4.47-3.77-4.71-2.28-.35-4.47,1.38-4.82,3.66-1.03,32.95-16.51,62.41-25.14,93.55-.22.65-.01,1.3.64,1.53.65.22,1.41-.1,1.64-.75h0Z"/><path d="M480.22,774.7c11.54-13.94,10.93-32.97,8.35-49.64-.09-1.63-1.5-3.06-3.35-2.96-1.63.09-2.95,1.6-2.86,3.24-1,16.09,1.47,32.86-5.07,48.14-.44,1.08-.02,2.39,1.28,2.84,1.08.44,2.39.02,2.84-1.28l-1.19-.34Z"/><path d="M180.9,327.78c4.8,9.22,7.74,18.14,4.43,27.64-4.85,13.95-9.1,20.64-29.5,31.58-26.12,14.01-54.61,30.38-86.35,16.05l-7.06-8.95c-.76-1.34-1.14-2.96-1.1-4.5l1.35-15.44c.22-1.28.66-2.53,1.53-3.71l18.69-23.14c20.45-23.06,24.15-28.47,50.42-44.34,2.51-1.77,6.07-1.27,7.93,1.38,1.77,2.51,1.21,5.99-1.37,7.93-15.35,11.53-10.51,11.52-25.66,24.45l-38.85,42.61,1.52-3.71-1.66,15.28,5.77,3.65c24.56,2.27,48.14-5.16,69.55-17.19,18.49-10.39,21.14-9.92,28.15-25.74,3.23-7.29,2.73-14.81-.05-23.02-.23-.59.13-1.41.81-1.51.59-.23,1.2.1,1.43.69h0Z"/><path d="M91.27,160.33c-11.38,19.19-14.44,41.81-16.82,63.65-.25,2.64,1.77,5.12,4.61,5.27,2.65.25,5.12-1.77,5.37-4.42.5-21.41,2.5-43.04,9.43-63.47.2-.74-.07-1.46-.78-1.81-.74-.2-1.45.07-1.81.78h0Z"/><path d="M181.91,383.3c11.3,42.63,42.51,80.29,69.46,116.12,17.25,22.85,37.46,39.82,58.35,58.17,47.76,41.95,76.73,97.73,108.38,151.14,1.93,3.41,6.24,4.72,9.75,2.82,3.41-1.93,4.72-6.23,2.82-9.75-29.03-56.87-61.94-112.67-111.22-155.16-53.03-45.81-100.72-103.95-134.86-164.4-.29-.68-1.15-1.04-1.83-.75-.79.26-1.12,1.01-.86,1.8h0Z"/><path d="M179.12,144.25c51.59,20.74,89.46,62.11,128.38,102.69,34.12,35.42,59.14,73.47,84.63,115,23.66,38.63,37.2,80.09,51.89,121.74,9.49,62.12,29.1,121.89,46,182.35,1.07,4.37,5.51,6.91,9.88,5.85,4.36-1.07,7.02-5.48,5.96-9.84-15.95-61.28-36.3-121.37-46.49-184.04-14.96-42.81-29.49-85.01-54.08-124.62-26.37-42.25-52.65-80.05-87.11-116.88-19.41-20.69-38.49-38.66-60.58-55.31-23.1-17.29-46.72-43.1-78.25-40.34-1.06-.05-2.15.84-2.23,2.02-.05,1.06.84,2.15,2.01,2.23v-.84Z"/><path d="M151.15,195.8c-.45,2.03-.97,3.92-1.41,5.96l-.34,3.38,8.64-6.11-.37-.82h0l-.21-.54h0l-.02-.36,1.78,4.8v-.84c-2.97,2.05-6.04,4.07-9.01,6.13.6.41,1.24.7,1.85,1.11,1.27,2.75,4.41,3.97,7.15,2.7,2.72-1.16,3.97-4.41,2.81-7.12-.19-1.49-.37-2.97-.56-4.47l-14.53,1.48c-.13,1.76.47,3.48,1.78,4.8l.36-.02h0l.53.26h0l.75.33c.73.8,1.67,1.3,2.79,1.61,2.84.55,5.74-1.28,6.32-4.24l-.7-5.7c-1.72-.72-2.88-2.12-4.23-3.33-.28-1.15-1.55-1.75-2.71-1.47-1.15.28-1.75,1.55-1.47,2.71l.79-.26Z"/><path d="M264.7,521.74c1.72,24.06,1.67,49.3,14.88,70.79l5.52,6.43c.77.69,1.68,1.3,2.57,1.55l7.24,2.37c1.44.4,2.93.22,4.32-.48l12.21-6.91c13.32-14.39,14.82-34.92,12.65-53.48-.14-3.39-3.09-6.12-6.51-5.87-3.42.25-6.01,3.12-5.76,6.54.86,11.61,1.35,23.24-3.31,34.87l-14.65,14.02,4.4-.34-7.4-1.81,2.68,1.58-4.51-4.48c-15.16-18.32-14.67-43.44-21.85-65.06-.15-.76-.75-1.17-1.37-1.1-.76.15-1.16.75-1.1,1.37h0Z"/><path d="M487.81,295.7c-5.93-32.81,2.97-64.86,9.66-98.23,4.97-24.82,11.86-47.08,20.8-69.73,9.39-24.33,14.39-50.4,31.8-71.47l4.2-3.11-7.21.46,4,2.69-2.75-4.16,2.27,12.73c1.71,94.13-28.31,186.02-66.69,270.99-1.25,2.36-.38,5.35,1.93,6.7,2.36,1.24,5.35.38,6.7-1.93,19.41-26.99,30.77-58.64,40.2-90.47,16.57-55.87,32.41-111.79,31.05-169.96l-3.07-30.1c-.27-1.74-1.24-3.28-2.71-4.27l-4.19-2.52c-2.22-1.56-5.2-1.32-7.27.31l-6.23,5.26c-27.81,44.23-39.94,95.21-52.06,147.06-7.13,30.55-11.73,59.54-6.96,91.23.47,3.33,3.18,6.1,4.99,9.24.19.45.71.68,1.06.45.45-.19.68-.72.49-1.17h0Z"/><path d="M559.41,442.4c5.13-32.95,24.03-60.32,41.28-89.66,12.82-21.83,26.62-40.61,42.47-59.09,16.84-19.92,30.09-42.92,53.44-57.13l4.98-1.57-6.96-1.92,2.9,3.85-1.24-4.83-2.02,12.77c-29.19,89.51-87.63,166.51-151.7,234.25-1.95,1.82-2.11,4.93-.37,6.96,1.82,1.95,4.93,2.11,6.96.37,27.17-19.16,48.26-45.34,67.59-72.33,33.94-47.37,67.21-95.03,84.97-150.45l6.95-29.45c.32-1.73-.1-3.51-1.16-4.92l-3.14-3.76c-1.59-2.2-4.49-2.95-6.97-2.09l-7.6,2.93c-40.76,32.69-68.9,76.9-97.33,121.93-16.74,26.53-30.57,52.42-36.43,83.93-.64,3.3,1.01,6.81,1.69,10.37.02.49.45.88.86.77.49-.03.88-.45.85-.94h0Z"/><path class="cls-3" d="M383.83,395.43l-15.86-11.45c-7.56-5.01-15.01-10.13-22.47-15.23,1.8-2.37,2.02-5.71.28-8.39l-5.24-7.44c-10.39-11.06-22.1-20.51-34.24-29.45.09-2.22-.89-4.46-2.8-5.82l-.25-.17c.38-.37.8-.69,1.09-1.15,2.1-3.25,1.11-7.47-2.14-9.57l-.61-.4h0s-.09-.05-.09-.05l-5.39-3.51c-14.18-8.88-28.83-16.78-43.59-24.53-9.91-6.77-19.78-13.58-29.68-20.4-.5-.38-1.11-.31-1.49.19-.38.49-.34,1.22.15,1.6,2.15,1.99,4.39,3.87,6.6,5.78-2.07-1.1-4.15-2.17-6.22-3.28l-7.4-3.97c-3.16-1.59-7.01-.62-8.99,2.18-2.29,3.08-1.62,7.57,1.6,9.78l7.23,5.31-14.64-6.64c-3.29-1.51-7.1-.29-8.69,2.86-1.7,3.12-.54,7.15,2.69,8.88l3.95,2.17c12,5.95,23.61,12.88,36.07,18.01l4.83,2.11c10.92,5.75,21.85,11.46,33.02,16.69-1.53.26-2.97.96-4.03,2.18-.31.33-.56.68-.79,1.04-.33-.23-.66-.46-.98-.7l-8.59-5.73c-2.23-1.46-5.16-1.67-7.51-.52-1.12.57-2,1.42-2.68,2.39-.5-.35-1.02-.68-1.52-1.04l-10.87-7.44c-3.03-2.04-7.1-1.61-9.63,1.04-2.87,3.04-2.63,7.77.29,10.61l3.72,3.43c1.08.76,2.14,1.54,3.22,2.3-.06.07-.15.13-.2.21-1.82,2.51-1.93,5.67-.57,8.23,0,0-.02-.01-.03-.02l-3.29-1.51c-3.29-1.51-7.15-.54-9.38,2.31-2.74,3.43-2.09,8.4,1.26,11l23.03,18.13c-.98,2.18-.98,4.74.3,7l3.51,5.04c16.35,13.54,33.78,25.61,51.25,37.63.45,1.46,1.33,2.82,2.63,3.85l8.53,6.79c7.06,5.74,14.25,11.37,21.22,17.26-.12.24-.26.47-.35.73-1.59,3.99.51,8.52,4.53,9.99,1.83.75,3.55,1.46,5.38,2.21l8.32,2.78c2.37.54,4.93-.07,6.81-1.7,3.32-2.91,3.76-7.94.84-11.26l-5.71-6.61c-1.18-1.05-2.39-2.09-3.58-3.14,1.24-2.88.79-6.34-1.53-8.69l-3.42-3.22c-5.8-3.54-11.65-6.91-17.51-10.28-3.83-2.67-7.64-5.35-11.48-7.98.59-1.26.87-2.65.75-4.04l32.59,19.55c2.79,1.61,6.24,1.25,8.61-.85,3.26-2.69,3.77-7.57.97-10.86l-4.3-4.78c-9.45-7.74-19.32-14.8-29.31-21.72.28-.32.54-.65.78-1.02.99-1.62,1.28-3.47,1-5.22,7.85,4.98,15.75,9.88,23.84,14.49l28.28,16.33c3.23,1.73,7.31.83,9.46-2.17,2.32-3.19,1.57-7.83-1.62-10.14Z"/><path d="M506.85,678.71c9.52,57.7,50.42,103.26,85.73,147.39,2.56,2.86,6.92,3.11,9.75.67,2.97-2.53,3.23-6.89.7-9.86-36.32-42.61-71.65-87.11-93.37-139.21-.31-1.04-1.36-1.57-2.32-1.12-1.04.31-1.57,1.36-1.12,2.32l.65-.18Z"/><polygon class="cls-1" points="205.23 584.81 181.44 554.57 148.02 527.86 112.11 509.54 76.15 498.42 56.88 504.27 60.36 518.72 86.58 545.38 129.68 564.96 169.21 580.91 205.23 584.81"/><path d="M217.52,591c-18.92-4.8-37.19-10.24-55.31-18-36.11-15.42-77.95-24.47-99.79-60.4l-.44-5.29-1.75,5.47,5.79-5.57-1.74,1.3,6.48-2.85-3.66.53,17.36,2.73c51.02,12.23,95.07,45.28,121.07,90.95,1.5,2.77,5.07,3.86,7.84,2.36,2.77-1.5,3.76-4.94,2.26-7.71-23.05-43.59-62.9-76.18-109.24-92.15l-37.2-8.85c-1.29-.24-2.56-.14-3.67.42l-6.47,2.97c-.66.4-1.32.8-1.86,1.31l-5.66,5.79c-1.5,1.4-2.14,3.54-1.75,5.47l2.17,9.43.1-.13c10.46,18.7,29.14,30.47,48.97,39.37,37.63,16.92,75.47,30.81,115.99,35.1.7.06,1.24-.33,1.31-.92.18-.6-.21-1.14-.8-1.32h0Z"/><path d="M354.42,316.5c25.69,25.49,61.83,33.56,87.82,60.78,4.58,4.65,8.27,10.52,8.37,17.55.28,33.99,18.22,60.12,27.06,91.54.84,2.93.59,5.95.56,9.03l-1.08.57,5.19-4.33-3.77.88c-10.78,1.92-23.5,3.03-29.53,13.8l-5.92,3.92c-1.3.99-2.13,2.46-2.51,4.03l-.89,5.72c.9,3.66,1.81,7.31,2.82,11,.62,3.35,3.75,5.64,7.1,5.02,3.46-.59,5.64-3.75,5.16-7.18-.19-1.7-.28-3.27-.47-4.98l.3-6.21-3.06,4.37,3.22-2.07c6-4.73,10.27-11.66,20.15-11.31l10.97-2.23c2.26-.52,4.18-2.08,5.16-4.22l.85-2.05c5.98-26.92-15.19-48.48-21.9-73.46-3.25-12.17-3.9-24.3-6.93-36.42-3-12.23-10.27-22.98-20.72-29.88-27.74-17.92-58.54-28.97-86.57-45.65-.39-.34-1.23-.3-1.59.21-.33.4-.3,1.24.21,1.59h0Z"/></g></svg>