<?xml version="1.0" encoding="UTF-8"?><svg id="Laag_2" xmlns="http://www.w3.org/2000/svg" viewBox="0 0 453.23 548.66"><defs><style>.cls-1{fill:#fff;}.cls-2{fill:#e30613;}</style></defs><g id="Laag_1-2"><path class="cls-1" d="M92.13,228.61l28.34,46.25,35.32,41.9-2.95,13.65,7.44,33.49,10.2,13.27,13.93-8.5,4.8-15.93,34.97,36.95,35.15,60.73,9.16,15.63-19.52,49.75s-7.78,22.53-11.81,30.33c-4.03,7.81,20.03-4.96,20.03-4.96l50.4-21.39,26.45-2.38,19.18,5.12,24.78,6.47-38.02-47.89-18.81-34.58-15.02-39.95-24.15-89.99,20.42-7.88-12.16-35.58-7.41-25.29-3.74-20.84-44.99-26.44-39.02-54.55-44.17-43.56-42.88-30.22-33.81-7.45-28.81,1.34s-11.89,3.18-22.8,14.42c-10.91,11.25-9.29,30.85-9.29,30.85l11.21,27.29,21.38,34.61,9.42,11.67-13.72,14.91-21.54,25.25-1.14,11.91,11.56,7.66,30.61-6.49,27.59-13.61,3.44,4.04Z"/><polygon class="cls-1" points="446.01 127.15 419.91 148.68 396.66 180.33 373.21 214.14 357.05 245.91 351.19 267.2 349.29 292.69 383.55 254.46 410.87 214.47 431.77 178.77 446.88 140.89 446.01 127.15"/><polygon class="cls-1" points="344.59 5.44 331.33 29.85 314.85 76.34 302.2 117.19 299.14 149.13 301.44 170.66 308.08 192.6 326.05 153.35 337.38 120.56 345.86 77.67 349.03 44.65 349.48 11.37 344.59 5.44"/><path class="cls-2" d="M296.87,433.98c-2.32-6.72-6.43-12.36-11.12-17.66,1.34.01,2.69-.47,3.73-1.45,1.74-1.57,2.18-3.98,1.39-6,.81-.24,1.59-.65,2.25-1.28,1.96-1.88,2.18-4.93.58-7.11,1.61.42,3.39.09,4.72-1.18,2.06-1.87,2.14-5.1.27-7.16l-7.9-8.45c-14.45-14.79-29.26-29.16-44.08-43.53l1.79,1.43c.65.59,1.44.97,2.29,1.12l1.55.27c1.48.25,2.97-.15,4.06-1.15,1.96-1.81,2.06-4.79.22-6.68l-4.73-5.21c-6.74-5.6-12.65-12.11-19.02-18.18l-4.21-4c-2.82-2.87-5.68-5.69-8.7-8.34l-2.63-2.45-.34-.32h0s-.26-.24-.26-.24c-1.64-1.43-4.11-1.3-5.59.24-.98.99-1.27,2.36-1.03,3.65l-2.77-1.94c-1.21-.91-2.86-1.12-4.37-.64-2.58.83-4,3.6-3.18,6.19l1.81,4.32c11.07,13.1,23.19,25.19,35.53,37.07-1.9-.62-4.03-.21-5.43,1.25-.28.29-.51.61-.72.94-.3.12-.6.24-.88.41-2.42,1.69-3.03,5.09-1.42,7.49l3.21,4.55c5.19,5.8,10.36,11.6,15.54,17.39-2.31,1.5-3.2,4.53-1.9,7.02l1.83,3.35c12.63,17.8,28.1,33.21,41.75,50.23,1.12,2.1,3.73,2.98,5.8,1.93,2.18-1.1,2.98-3.73,1.95-5.88Z"/><path class="cls-2" d="M166.12,123.21c-1.81-1.97-4.94-2.1-6.91-.29,1.12.07,2.16.11,3.28.18-1.59.28-3.04.06-4.43-.41-.11-1.32-.75-2.6-1.89-3.45l-2.86-2.01c-3.96-2.1-8.01-4.08-12.06-6.05.14-.24.28-.49.38-.76.01-.04.02-.07.03-.11,1.84.49,3.84-.14,4.86-1.71,1.38-2.05.84-4.8-1.21-6.18l-4.54-2.96c-1.4-.7-2.79-1.44-4.18-2.15.55-.33,1.05-.73,1.4-1.3,1.19-1.94.51-4.49-1.36-5.66l-7.03-3.08c-1.4-.55-2.78-1.15-4.17-1.72.3-1.34-.22-2.78-1.44-3.57l-2.81-1.59-.02.08c-5.42-1.96-10.84-3.88-16.25-5.81.6-.13,1.09-.61,1.13-1.21.16-.85-.43-1.66-1.23-1.72l-.16.85c-8.13-3.85-16.87-5.5-25.56-7.36l-3.85-1.57-.04-.03h0s-.73-.28-.73-.28c-.93-.3-1.88-.2-2.71.19-.36-.09-.73-.17-1.09-.27l-3.34-.84c-1.45-.32-2.9.5-3.3,1.93-.4,1.43.48,2.98,1.89,3.45l4.72,1.36c.24.27.48.54.8.74l.72.33v.03s.21.07.21.07l3.97,1.83c-.49,1.69.08,3.41,1.44,4.47-.39.36-.74.77-.99,1.26-1.05,2.31-.16,4.99,2.13,6.12l4.22,2.06c2.55,1.58,5.14,3.08,7.75,4.55.1,1.43.86,2.79,2.17,3.64l7.48,4.67c7.89,4.39,15.74,8.87,23.57,13.4.22,1.23.91,2.37,2,3.11l5.21,3.48c11.23,2.87,22.07,20.08,34.5,11.26,1.96-1.81,2.1-4.94.29-6.91Z"/><path d="M83.03,67.33c-11.08-8.48-25.55-6.31-37.99-3.26-1.55.11-2.57,1.45-2.45,3,.14,1.45,1.45,2.57,3.03,2.36,12.58-.42,24.58-3.49,37.08-.89.3.08.69-.14.77-.44.09-.3-.13-.69-.44-.77h0Z"/><path d="M25.58,74.5c-11.94,7.53-16.53,24.89-16.4,38.9-.23,2,1.29,3.93,3.39,4.19,1.99.23,3.93-1.29,4.16-3.29,1.03-12.72,5.73-24.2,10.83-36,.45-.85-.48-2.19-.83-3.26.18-.27.1-.73-.31-.84-.27-.19-.73-.1-.84.31h0Z"/><path d="M19.94,114.43c-7.63,2.11-11.44,9.62-18.28,12.82-1.75,1.25-2.16,3.52-1.02,5.24,1.15,1.72,3.49,2.27,5.24,1.02,6.89-4.16,11.44-10.81,16.21-17.07.94-1.04.82-2.59-.12-3.5-1.04-.94-2.59-.83-3.5.11l1.46,1.38Z"/><path d="M22.28,136.53c-1.73,16.42,11.39,29.69,21.1,41.59,1.28,1.65,3.63,1.76,5.28.49,1.55-1.3,1.79-3.73.39-5.31-9.62-11.44-18.51-23.54-23.32-37.87-.44-1.53-2.14-2.43-3.6-1.86-1.53.44-2.44,2.14-1.86,3.6l2.02-.63Z"/><path d="M268.7,454.18c-1.66,21.55-11.12,41.4-21.46,59.77-.82,1.25-.54,3.02.71,3.85,1.4.82,3.1.47,3.92-.78,12.99-17.61,20.49-40.81,18.46-62.97,0-.44-.36-.82-.88-.75-.44,0-.81.36-.75.88h0Z"/><path d="M358.72,523.81c-34.02-20.29-78.73-5.6-108.52,16.67-1.78,1.17-2.32,3.6-1.15,5.38,1.16,1.78,3.6,2.32,5.38,1.15,20.65-14.89,43.75-22.38,69.99-26.66,13.38-2.18,22.99,5.51,34.95,5.9.96-.07,1.71-.8,1.71-1.69,0-.89-.73-1.63-1.68-1.71l-.67.95Z"/><path d="M331,501.43c-5.04-7.06-6-15.92-10-23.41-.65-1.26-2.27-1.86-3.53-1.21-1.33.58-1.86,2.12-1.29,3.46,4.81,7.13,5.91,17.18,13.55,22.41.44.45,1.18.45,1.62.01.45-.44.45-1.18.01-1.62l-.37.37Z"/><path d="M272.19,514.9c9.76-20,20.93-40.36,21.35-63.32.16-1.62-.94-3.03-2.56-3.19-1.55-.23-3.04.93-3.27,2.48-.7,22.37-11.2,42.36-17.06,63.5-.15.44,0,.89.43,1.04.44.15.96-.07,1.11-.51h0Z"/><path d="M298.1,497.17c7.83-9.46,7.42-22.38,5.67-33.69-.06-1.11-1.02-2.08-2.27-2.01-1.11.06-2,1.09-1.94,2.2-.68,10.92,1,22.31-3.44,32.68-.3.74-.01,1.62.87,1.93.74.3,1.62.01,1.93-.87l-.81-.23Z"/><path d="M94.93,193.81c3.26,6.26,5.25,12.31,3.01,18.76-3.29,9.47-6.18,14.01-20.02,21.43-17.73,9.51-37.07,20.62-58.61,10.89l-4.79-6.07c-.52-.91-.78-2.01-.74-3.05l.92-10.48c.15-.87.45-1.72,1.04-2.52l12.69-15.71c13.88-15.65,16.39-19.32,34.22-30.1,1.71-1.2,4.12-.86,5.38.93,1.2,1.71.82,4.06-.93,5.38-10.42,7.83-7.13,7.82-17.42,16.6l-26.37,28.92,1.03-2.52-1.12,10.37,3.92,2.48c16.67,1.54,32.68-3.5,47.21-11.67,12.55-7.06,14.35-6.73,19.11-17.47,2.19-4.95,1.85-10.05-.03-15.62-.15-.4.09-.96.55-1.03.4-.16.81.07.97.47h0Z"/><path d="M34.09,80.15c-7.72,13.03-9.8,28.38-11.42,43.21-.17,1.79,1.2,3.48,3.13,3.57,1.8.17,3.48-1.2,3.65-3,.34-14.53,1.7-29.21,6.4-43.08.14-.5-.05-.99-.53-1.23-.5-.14-.99.05-1.23.53h0Z"/><path d="M95.62,231.49c7.67,28.94,28.86,54.5,47.15,78.82,11.71,15.51,25.43,27.03,39.61,39.49,32.42,28.47,52.08,66.34,73.57,102.59,1.31,2.31,4.23,3.2,6.62,1.91,2.31-1.31,3.2-4.23,1.92-6.62-19.7-38.6-42.04-76.48-75.5-105.32-36-31.09-68.37-70.56-91.54-111.59-.2-.46-.78-.7-1.24-.51-.54.18-.76.68-.58,1.22h0Z"/><path d="M93.72,69.23c35.02,14.08,60.72,42.16,87.14,69.71,23.16,24.04,40.14,49.87,57.45,78.06,16.06,26.22,25.25,54.36,35.22,82.63,6.44,42.17,19.75,82.74,31.22,123.78.72,2.96,3.74,4.69,6.7,3.97,2.96-.72,4.77-3.72,4.04-6.68-10.83-41.59-24.64-82.39-31.56-124.93-10.16-29.06-20.02-57.71-36.71-84.59-17.9-28.68-35.74-54.34-59.13-79.34-13.17-14.04-26.13-26.24-41.12-37.55-15.68-11.74-31.71-29.26-53.12-27.38-.72-.04-1.46.57-1.52,1.37-.04.72.57,1.46,1.37,1.52v-.57Z"/><path d="M74.74,104.22c-.3,1.38-.66,2.66-.96,4.04l-.23,2.29,5.86-4.15-.25-.56h0l-.14-.36h0v-.25s1.2,3.26,1.2,3.26v-.57c-2.02,1.39-4.1,2.77-6.11,4.16.41.28.84.48,1.26.75.87,1.87,2.99,2.7,4.86,1.83,1.84-.79,2.7-2.99,1.91-4.83-.13-1.01-.25-2.02-.38-3.03l-9.87,1.01c-.09,1.19.32,2.36,1.21,3.26h.25s.36.17.36.17h0l.51.22c.5.54,1.14.88,1.89,1.09,1.93.37,3.9-.87,4.29-2.88l-.47-3.87c-1.17-.49-1.96-1.44-2.87-2.26-.19-.78-1.05-1.18-1.84-1-.78.19-1.18,1.05-.99,1.84l.54-.18Z"/><path d="M151.81,325.47c1.17,16.33,1.14,33.47,10.1,48.05l3.75,4.37c.52.47,1.14.88,1.74,1.05l4.92,1.61c.98.27,1.99.15,2.93-.32l8.29-4.69c9.04-9.77,10.06-23.71,8.59-36.3-.09-2.3-2.1-4.16-4.42-3.99-2.32.17-4.08,2.12-3.91,4.44.58,7.88.92,15.77-2.25,23.67l-9.95,9.52,2.99-.23-5.02-1.23,1.82,1.07-3.06-3.04c-10.29-12.44-9.96-29.49-14.83-44.16-.1-.52-.51-.79-.93-.74-.51.1-.79.51-.74.93h0Z"/><path d="M303.26,172.03c-4.03-22.27,2.01-44.03,6.56-66.67,3.37-16.85,8.05-31.96,14.12-47.33,6.38-16.52,9.77-34.21,21.58-48.51l2.85-2.11-4.89.31,2.71,1.83-1.87-2.83,1.54,8.64c1.16,63.9-19.22,126.27-45.27,183.95-.85,1.6-.26,3.63,1.31,4.55,1.6.84,3.63.26,4.55-1.31,13.17-18.32,20.88-39.8,27.28-61.41,11.25-37.92,22-75.88,21.08-115.37l-2.08-20.43c-.18-1.18-.84-2.23-1.84-2.9l-2.85-1.71c-1.51-1.06-3.53-.9-4.93.21l-4.23,3.57c-18.88,30.02-27.11,64.63-35.34,99.82-4.84,20.74-7.97,40.41-4.72,61.93.32,2.26,2.16,4.14,3.39,6.27.13.31.49.46.72.3.31-.13.46-.49.33-.79h0Z"/><path d="M351.86,271.61c3.48-22.36,16.31-40.95,28.02-60.86,8.7-14.82,18.07-27.57,28.83-40.11,11.43-13.52,20.43-29.13,36.28-38.78l3.38-1.06-4.73-1.3,1.97,2.61-.84-3.28-1.37,8.67c-19.81,60.76-59.48,113.03-102.97,159.01-1.32,1.23-1.43,3.35-.25,4.73,1.23,1.32,3.35,1.43,4.73.25,18.45-13,32.76-30.78,45.88-49.1,23.04-32.15,45.62-64.5,57.67-102.12l4.72-19.99c.21-1.18-.07-2.38-.79-3.34l-2.13-2.55c-1.08-1.5-3.04-2-4.73-1.42l-5.16,1.99c-27.67,22.19-46.77,52.2-66.07,82.76-11.36,18.01-20.75,35.58-24.73,56.97-.44,2.24.69,4.62,1.15,7.04.02.33.31.59.58.52.33-.02.59-.31.58-.64h0Z"/><path class="cls-2" d="M232.67,239.73l-10.77-7.77c-5.13-3.4-10.19-6.87-15.26-10.34,1.22-1.61,1.37-3.88.19-5.69l-3.56-5.05c-7.05-7.51-15-13.92-23.24-19.99.06-1.51-.6-3.02-1.9-3.95l-.17-.12c.26-.25.54-.47.74-.78,1.42-2.2.75-5.07-1.45-6.5l-.42-.27h0s-.06-.03-.06-.03l-3.66-2.38c-9.62-6.03-19.57-11.39-29.59-16.65-6.73-4.59-13.43-9.22-20.14-13.85-.34-.26-.75-.21-1.01.13-.26.33-.23.83.1,1.09,1.46,1.35,2.98,2.63,4.48,3.92-1.41-.74-2.82-1.47-4.22-2.23l-5.02-2.69c-2.14-1.08-4.76-.42-6.1,1.48-1.55,2.09-1.1,5.14,1.09,6.64l4.91,3.6-9.94-4.51c-2.23-1.02-4.82-.2-5.9,1.94-1.15,2.12-.37,4.85,1.82,6.03l2.68,1.47c8.15,4.04,16.03,8.74,24.49,12.22l3.28,1.43c7.41,3.9,14.83,7.78,22.41,11.33-1.04.18-2.02.65-2.74,1.48-.21.22-.38.46-.53.71-.22-.16-.45-.32-.67-.47l-5.83-3.89c-1.51-.99-3.51-1.13-5.1-.36-.76.39-1.36.96-1.82,1.62-.34-.24-.69-.46-1.03-.71l-7.38-5.05c-2.06-1.38-4.82-1.09-6.53.71-1.95,2.06-1.79,5.27.2,7.21l2.53,2.33c.73.52,1.45,1.05,2.19,1.56-.04.05-.1.09-.14.14-1.23,1.71-1.31,3.85-.39,5.59,0,0-.01,0-.02-.01l-2.23-1.02c-2.24-1.02-4.86-.37-6.37,1.57-1.86,2.33-1.42,5.7.86,7.47l15.63,12.31c-.66,1.48-.66,3.22.21,4.75l2.38,3.42c11.1,9.19,22.93,17.38,34.79,25.55.31.99.9,1.91,1.78,2.61l5.79,4.61c4.79,3.9,9.67,7.72,14.41,11.72-.08.16-.17.32-.24.49-1.08,2.71.35,5.79,3.08,6.78,1.24.51,2.41.99,3.65,1.5l5.65,1.89c1.61.36,3.35-.05,4.63-1.16,2.26-1.98,2.55-5.39.57-7.64l-3.88-4.49c-.8-.72-1.62-1.42-2.43-2.13.84-1.96.54-4.3-1.04-5.9l-2.32-2.19c-3.94-2.4-7.91-4.69-11.88-6.98-2.6-1.81-5.19-3.63-7.79-5.42.4-.86.59-1.8.51-2.74l22.12,13.27c1.89,1.09,4.23.85,5.85-.58,2.21-1.83,2.56-5.14.66-7.37l-2.92-3.25c-6.41-5.26-13.12-10.04-19.9-14.74.19-.22.37-.44.53-.69.67-1.1.87-2.35.68-3.54,5.33,3.38,10.69,6.71,16.19,9.83l19.19,11.08c2.19,1.18,4.96.56,6.42-1.47,1.57-2.16,1.07-5.31-1.1-6.88Z"/><path d="M316.18,432.02c6.46,39.17,34.22,70.09,58.19,100.04,1.74,1.94,4.7,2.11,6.62.45,2.02-1.72,2.19-4.68.47-6.7-24.65-28.93-48.63-59.13-63.38-94.49-.21-.71-.92-1.07-1.58-.76-.71.21-1.07.92-.76,1.58l.44-.12Z"/><polygon class="cls-1" points="111.45 368.28 95.3 347.75 72.61 329.62 48.24 317.18 23.83 309.64 10.75 313.61 13.11 323.42 30.91 341.51 60.17 354.8 87 365.63 111.45 368.28"/><path d="M119.79,372.48c-12.84-3.26-25.25-6.95-37.55-12.22-24.51-10.47-52.91-16.61-67.74-41l-.3-3.59-1.19,3.71,3.93-3.78-1.18.88,4.4-1.93-2.48.36,11.78,1.86c34.63,8.3,64.53,30.74,82.18,61.73,1.02,1.88,3.44,2.62,5.32,1.6,1.88-1.02,2.55-3.35,1.53-5.23-15.64-29.59-42.69-51.71-74.15-62.55l-25.25-6.01c-.88-.16-1.74-.09-2.49.28l-4.39,2.01c-.45.27-.9.55-1.26.89l-3.84,3.93c-1.02.95-1.45,2.4-1.19,3.71l1.47,6.4.07-.09c7.1,12.69,19.78,20.68,33.24,26.72,25.54,11.48,51.23,20.91,78.74,23.83.48.04.84-.23.89-.62.12-.4-.14-.77-.55-.9h0Z"/><path d="M212.71,186.15c17.44,17.3,41.97,22.78,59.61,41.26,3.11,3.16,5.62,7.14,5.68,11.91.19,23.07,12.37,40.81,18.37,62.14.57,1.99.4,4.04.38,6.13l-.74.39,3.52-2.94-2.56.6c-7.32,1.3-15.95,2.05-20.04,9.37l-4.02,2.66c-.89.67-1.44,1.67-1.7,2.73l-.61,3.88c.61,2.48,1.23,4.96,1.91,7.46.42,2.27,2.55,3.83,4.82,3.41,2.35-.4,3.83-2.54,3.5-4.88-.13-1.16-.19-2.22-.32-3.38l.21-4.22-2.08,2.96,2.19-1.41c4.07-3.21,6.97-7.91,13.68-7.68l7.45-1.52c1.54-.35,2.84-1.41,3.5-2.86l.57-1.39c4.06-18.27-10.31-32.91-14.87-49.86-2.21-8.26-2.65-16.5-4.71-24.72-2.04-8.3-6.97-15.6-14.07-20.28-18.83-12.16-39.74-19.67-58.76-30.99-.27-.23-.84-.2-1.08.14-.23.27-.2.84.14,1.08h0Z"/></g></svg>